<?xml version="1.0" standalone="no"?>
<!DOCTYPE svg PUBLIC "-//W3C//DTD SVG 20010904//EN"
 "http://www.w3.org/TR/2001/REC-SVG-20010904/DTD/svg10.dtd">
<svg version="1.0" xmlns="http://www.w3.org/2000/svg"
 width="500.000000pt" height="500.000000pt" viewBox="0 0 500.000000 500.000000"
 preserveAspectRatio="xMidYMid meet">

<g transform="translate(0.000000,500.000000) scale(0.100000,-0.100000)"
fill="#000000" stroke="none">
<path d="M0 2500 l0 -2500 2500 0 2500 0 0 2500 0 2500 -2500 0 -2500 0 0
-2500z m2600 832 c0 -11 -207 -548 -222 -575 -7 -14 -13 -17 -15 -10 -4 10
104 301 204 556 14 33 33 50 33 29z m-260 -111 c0 -6 -47 -47 -105 -92 -58
-45 -105 -85 -105 -89 0 -4 47 -44 105 -90 94 -73 121 -100 98 -100 -5 0 -53
37 -108 81 -55 44 -106 83 -112 86 -30 12 -5 43 100 125 111 87 127 97 127 79z
m409 -81 c60 -47 110 -92 110 -100 0 -8 -49 -53 -110 -100 -114 -89 -129 -98
-129 -82 0 6 47 47 105 92 58 46 105 86 105 90 0 3 -47 44 -105 89 -58 46
-105 87 -105 93 0 16 12 8 129 -82z m-1552 -586 c68 -42 98 -99 98 -184 -1
-104 -56 -178 -153 -206 -150 -44 -282 55 -282 211 0 172 187 272 337 179z
m1367 -123 c21 -81 41 -154 45 -160 4 -6 23 46 41 116 18 70 37 143 42 161 9
32 9 32 73 32 l65 0 0 -210 0 -210 -45 0 -45 0 -1 158 -1 157 -41 -157 -42
-158 -42 0 c-38 0 -43 3 -49 28 -4 15 -24 90 -45 167 l-37 140 -1 -167 -1
-168 -40 0 -40 0 0 210 0 210 63 0 62 0 39 -149z m1236 -51 c0 -234 6 -224
-122 -225 -62 0 -82 4 -104 21 -71 52 -91 128 -56 208 17 37 30 51 64 66 24
11 64 20 91 20 l47 0 0 55 0 55 40 0 40 0 0 -200z m-2280 75 c27 -14 33 -14
62 1 49 25 135 15 165 -20 21 -25 23 -36 23 -152 l0 -124 -40 0 -40 0 0 103
c0 56 -4 108 -9 116 -5 8 -24 14 -41 14 -17 0 -36 -6 -41 -14 -5 -8 -9 -60 -9
-116 l0 -103 -40 0 -40 0 0 94 c0 52 -3 102 -6 111 -8 21 -45 35 -73 28 -20
-5 -21 -12 -21 -119 l0 -114 -40 0 -40 0 0 149 0 150 28 4 c64 10 135 6 162
-8z m506 0 c50 -21 64 -62 64 -185 0 -119 5 -115 -127 -115 -78 0 -96 3 -120
21 -38 29 -50 64 -33 104 17 41 61 60 135 60 53 0 56 2 53 22 -4 31 -55 44
-116 30 -26 -6 -48 -9 -50 -7 -2 1 1 18 5 36 6 23 17 35 34 40 43 12 119 9
155 -6z m1054 -3 c51 -25 60 -51 60 -179 l0 -111 -74 -7 c-132 -13 -204 15
-208 80 -4 73 39 105 140 105 56 0 60 1 55 21 -9 32 -49 43 -112 30 -30 -6
-56 -10 -57 -8 -1 1 1 18 5 37 5 28 13 36 36 41 57 12 120 9 155 -9z m368 -1
c21 -11 22 -16 22 -175 0 -147 -2 -166 -20 -188 -29 -37 -71 -51 -140 -46 -68
5 -75 10 -85 56 l-7 33 39 -8 c62 -13 104 -8 119 12 24 33 16 40 -44 41 -110
1 -166 56 -159 156 4 64 27 99 82 125 35 16 158 13 193 -6z m-1148 -31 l0 -40
-50 0 -50 0 0 -110 0 -110 -40 0 -40 0 0 144 0 145 28 4 c15 2 55 5 90 6 l62
1 0 -40z m1620 -54 c0 -110 9 -126 71 -126 l39 0 0 111 0 110 43 -3 42 -3 0
-166 c0 -185 -6 -208 -60 -234 -34 -16 -91 -19 -143 -9 -25 5 -32 13 -40 45
l-10 39 42 -7 c61 -11 107 -8 117 8 18 28 10 39 -28 39 -59 0 -110 18 -133 47
-17 22 -20 40 -20 134 l0 109 40 0 40 0 0 -94z m-2650 -446 c0 -17 -7 -20 -51
-20 -47 0 -50 -2 -47 -22 2 -19 10 -24 46 -26 28 -2 42 -8 42 -18 0 -10 -12
-14 -45 -14 l-45 0 0 -45 c0 -33 -4 -45 -15 -45 -8 0 -15 8 -15 18 -1 41 -2
178 -1 185 1 4 30 7 66 7 58 0 65 -2 65 -20z m1148 -79 c3 -105 0 -111 -61
-111 -46 0 -87 36 -87 75 0 36 42 75 80 75 27 0 30 3 30 31 0 24 4 30 18 27
14 -3 17 -17 20 -97z m190 78 c39 -24 52 -81 32 -134 -12 -32 -64 -55 -125
-55 l-45 0 0 98 c0 54 3 102 8 106 10 11 106 0 130 -15z m580 -87 c3 -97 2
-102 -18 -102 -19 0 -20 6 -20 106 0 95 2 105 18 102 15 -3 17 -17 20 -106z
m-1418 68 c0 -16 7 -20 30 -20 23 0 30 -4 30 -20 0 -16 -7 -20 -31 -20 -28 0
-30 -2 -27 -32 2 -25 9 -34 28 -38 14 -3 26 -14 28 -23 3 -13 -4 -17 -26 -17
-53 0 -62 8 -62 56 0 30 -5 46 -15 50 -8 4 -15 15 -15 25 0 10 7 19 15 19 8 0
15 9 15 20 0 11 7 20 15 20 8 0 15 -9 15 -20z m-397 -40 c4 -16 0 -20 -19 -20
-22 0 -24 -4 -24 -55 0 -48 -2 -55 -20 -55 -18 0 -20 7 -20 69 0 58 3 70 18
74 40 11 60 7 65 -13z m152 -5 c14 -13 25 -36 25 -50 0 -14 -11 -37 -25 -50
-49 -50 -135 -20 -135 47 0 71 85 104 135 53z m155 5 c15 -15 20 -33 20 -75 0
-48 -2 -55 -20 -55 -17 0 -20 7 -20 49 0 51 -18 78 -45 67 -11 -4 -15 -21 -15
-61 0 -48 -2 -55 -20 -55 -18 0 -20 7 -20 68 0 38 3 72 7 75 15 16 93 7 113
-13z m400 0 c11 -11 20 -29 20 -40 0 -17 -7 -20 -50 -20 -37 0 -50 -4 -50 -15
0 -15 31 -26 65 -22 12 1 20 -4 20 -13 0 -24 -76 -25 -105 -2 -32 26 -32 88 0
114 29 24 75 23 100 -2z m160 0 c15 -15 20 -33 20 -75 0 -48 -2 -55 -20 -55
-17 0 -20 7 -20 49 0 51 -18 78 -45 67 -11 -4 -15 -21 -15 -61 0 -48 -2 -55
-20 -55 -18 0 -20 7 -20 68 0 38 3 72 7 75 15 16 93 7 113 -13z m550 0 c11
-11 20 -29 20 -40 0 -17 -7 -20 -50 -20 -37 0 -50 -4 -50 -14 0 -19 31 -29 64
-20 19 4 26 2 26 -9 0 -29 -71 -37 -107 -12 -11 8 -24 26 -27 40 -7 27 15 80
36 88 29 12 69 6 88 -13z m85 -37 c18 -63 27 -60 46 15 8 31 16 42 30 42 24 0
23 -11 -5 -85 -21 -54 -26 -60 -51 -60 -25 0 -30 6 -45 50 -33 98 -33 95 -11
95 15 0 23 -12 36 -57z m234 31 c34 -44 28 -54 -34 -54 -30 0 -55 -4 -55 -9 0
-19 31 -33 60 -28 32 7 51 -10 29 -24 -8 -5 -30 -9 -50 -9 -46 0 -79 30 -79
72 0 71 87 106 129 52z m228 4 c49 -46 14 -128 -54 -128 -41 0 -83 38 -83 75
0 63 89 98 137 53z m164 3 c52 -42 17 -131 -51 -131 -24 0 -29 -5 -32 -27 -2
-17 -9 -28 -18 -28 -20 0 -28 184 -8 197 23 14 85 9 109 -11z m168 -7 c34 -44
28 -54 -34 -54 -30 0 -55 -4 -55 -9 0 -19 31 -33 60 -28 32 7 51 -10 29 -24
-25 -15 -76 -10 -103 12 -52 41 -18 129 49 129 24 0 39 -7 54 -26z m121 6 c0
-13 -7 -20 -20 -20 -18 0 -20 -7 -20 -55 0 -48 -2 -55 -20 -55 -18 0 -20 7
-20 69 0 74 2 77 58 80 16 1 22 -5 22 -19z m-1850 -55 c0 -11 -12 -15 -50 -15
-38 0 -50 4 -50 15 0 11 12 15 50 15 38 0 50 -4 50 -15z"/>
<path d="M1011 2492 c-38 -19 -71 -72 -71 -114 0 -41 27 -101 56 -122 60 -43
156 -25 194 36 23 38 26 110 7 148 -31 62 -119 87 -186 52z"/>
<path d="M3607 2372 c-10 -11 -17 -36 -17 -60 0 -57 26 -82 85 -82 l45 0 0 80
0 80 -48 0 c-35 0 -54 -5 -65 -18z"/>
<path d="M1905 2276 c-32 -24 -8 -50 49 -54 l47 -3 -3 33 c-3 30 -6 33 -38 36
-20 2 -44 -4 -55 -12z"/>
<path d="M2963 2280 c-50 -20 -19 -60 47 -60 42 0 46 2 48 27 1 15 -4 30 -10
35 -17 10 -57 9 -85 -2z"/>
<path d="M3302 2389 c-21 -6 -36 -19 -42 -35 -15 -38 -12 -53 15 -79 18 -19
35 -25 70 -25 l45 0 0 70 c0 54 -3 70 -14 70 -8 0 -20 2 -28 4 -7 2 -28 0 -46
-5z"/>
<path d="M2328 1839 c-21 -12 -24 -49 -6 -67 7 -7 23 -12 36 -12 21 0 23 4 20
42 -3 45 -18 56 -50 37z"/>
<path d="M2510 1835 l0 -65 33 0 c20 0 41 8 50 18 39 43 5 112 -53 112 l-30 0
0 -65z"/>
<path d="M1442 1838 c-24 -24 -8 -78 24 -78 17 0 44 28 44 45 0 17 -27 45 -44
45 -6 0 -17 -5 -24 -12z"/>
<path d="M2007 1844 c-15 -15 -6 -24 24 -24 20 0 29 4 27 13 -5 14 -40 21 -51
11z"/>
<path d="M2717 1844 c-15 -15 -6 -24 24 -24 20 0 29 4 27 13 -5 14 -40 21 -51
11z"/>
<path d="M3033 1843 c-26 -10 -12 -23 23 -23 31 0 35 2 24 15 -13 15 -25 17
-47 8z"/>
<path d="M3258 1839 c-27 -15 -23 -57 7 -71 30 -13 55 3 55 36 0 39 -28 55
-62 35z"/>
<path d="M3420 1805 c0 -38 3 -45 19 -45 23 0 51 25 51 45 0 20 -28 45 -51 45
-16 0 -19 -7 -19 -45z"/>
<path d="M3590 1835 c-11 -13 -7 -15 24 -15 37 0 48 13 20 24 -23 9 -30 8 -44
-9z"/>
</g>
</svg>
